<svg xmlns="http://www.w3.org/2000/svg" xmlns:xlink="http://www.w3.org/1999/xlink" width="500" zoomAndPan="magnify" viewBox="0 0 375 374.999991" height="500" preserveAspectRatio="xMidYMid meet" version="1.0"><defs><clipPath id="aead6575dd"><path d="M 37.5 37.5 L 337.5 37.5 L 337.5 337.5 L 37.5 337.5 Z M 37.5 37.5 " clip-rule="nonzero"/></clipPath><clipPath id="98d9c07d5e"><path d="M 187.5 37.5 C 104.65625 37.5 37.5 104.65625 37.5 187.5 C 37.5 270.34375 104.65625 337.5 187.5 337.5 C 270.34375 337.5 337.5 270.34375 337.5 187.5 C 337.5 104.65625 270.34375 37.5 187.5 37.5 Z M 187.5 37.5 " clip-rule="nonzero"/></clipPath><linearGradient x1="-0.00000133333" gradientTransform="matrix(1.171875, 0, 0, 1.171875, 37.500004, 37.499999)" y1="128" x2="255.999988" gradientUnits="userSpaceOnUse" y2="128" id="4e644e9cd3"><stop stop-opacity="1" stop-color="rgb(65.098572%, 65.098572%, 65.098572%)" offset="0"/><stop stop-opacity="1" stop-color="rgb(65.234375%, 65.234375%, 65.234375%)" offset="0.0078125"/><stop stop-opacity="1" stop-color="rgb(65.507507%, 65.507507%, 65.507507%)" offset="0.015625"/><stop stop-opacity="1" stop-color="rgb(65.78064%, 65.78064%, 65.78064%)" offset="0.0234375"/><stop stop-opacity="1" stop-color="rgb(66.052246%, 66.052246%, 66.052246%)" offset="0.03125"/><stop stop-opacity="1" stop-color="rgb(66.325378%, 66.325378%, 66.325378%)" offset="0.0390625"/><stop stop-opacity="1" stop-color="rgb(66.598511%, 66.598511%, 66.598511%)" offset="0.046875"/><stop stop-opacity="1" stop-color="rgb(66.871643%, 66.871643%, 66.871643%)" offset="0.0546875"/><stop stop-opacity="1" stop-color="rgb(67.14325%, 67.14325%, 67.14325%)" offset="0.0625"/><stop stop-opacity="1" stop-color="rgb(67.416382%, 67.416382%, 67.416382%)" offset="0.0703125"/><stop stop-opacity="1" stop-color="rgb(67.689514%, 67.689514%, 67.689514%)" offset="0.078125"/><stop stop-opacity="1" stop-color="rgb(67.961121%, 67.961121%, 67.961121%)" offset="0.0859375"/><stop stop-opacity="1" stop-color="rgb(68.234253%, 68.234253%, 68.234253%)" offset="0.09375"/><stop stop-opacity="1" stop-color="rgb(68.507385%, 68.507385%, 68.507385%)" offset="0.101562"/><stop stop-opacity="1" stop-color="rgb(68.778992%, 68.778992%, 68.778992%)" offset="0.109375"/><stop stop-opacity="1" stop-color="rgb(69.052124%, 69.052124%, 69.052124%)" offset="0.117187"/><stop stop-opacity="1" stop-color="rgb(69.325256%, 69.325256%, 69.325256%)" offset="0.125"/><stop stop-opacity="1" stop-color="rgb(69.596863%, 69.596863%, 69.596863%)" offset="0.132812"/><stop stop-opacity="1" stop-color="rgb(69.869995%, 69.869995%, 69.869995%)" offset="0.140625"/><stop stop-opacity="1" stop-color="rgb(70.143127%, 70.143127%, 70.143127%)" offset="0.148437"/><stop stop-opacity="1" stop-color="rgb(70.41626%, 70.41626%, 70.41626%)" offset="0.15625"/><stop stop-opacity="1" stop-color="rgb(70.687866%, 70.687866%, 70.687866%)" offset="0.164062"/><stop stop-opacity="1" stop-color="rgb(70.960999%, 70.960999%, 70.960999%)" offset="0.171875"/><stop stop-opacity="1" stop-color="rgb(71.234131%, 71.234131%, 71.234131%)" offset="0.179687"/><stop stop-opacity="1" stop-color="rgb(71.505737%, 71.505737%, 71.505737%)" offset="0.1875"/><stop stop-opacity="1" stop-color="rgb(71.77887%, 71.77887%, 71.77887%)" offset="0.195312"/><stop stop-opacity="1" stop-color="rgb(72.052002%, 72.052002%, 72.052002%)" offset="0.203125"/><stop stop-opacity="1" stop-color="rgb(72.323608%, 72.323608%, 72.323608%)" offset="0.210937"/><stop stop-opacity="1" stop-color="rgb(72.596741%, 72.596741%, 72.596741%)" offset="0.21875"/><stop stop-opacity="1" stop-color="rgb(72.869873%, 72.869873%, 72.869873%)" offset="0.226562"/><stop stop-opacity="1" stop-color="rgb(73.141479%, 73.141479%, 73.141479%)" offset="0.234375"/><stop stop-opacity="1" stop-color="rgb(73.414612%, 73.414612%, 73.414612%)" offset="0.242187"/><stop stop-opacity="1" stop-color="rgb(73.687744%, 73.687744%, 73.687744%)" offset="0.25"/><stop stop-opacity="1" stop-color="rgb(73.959351%, 73.959351%, 73.959351%)" offset="0.257812"/><stop stop-opacity="1" stop-color="rgb(74.232483%, 74.232483%, 74.232483%)" offset="0.265625"/><stop stop-opacity="1" stop-color="rgb(74.505615%, 74.505615%, 74.505615%)" offset="0.273438"/><stop stop-opacity="1" stop-color="rgb(74.778748%, 74.778748%, 74.778748%)" offset="0.28125"/><stop stop-opacity="1" stop-color="rgb(75.050354%, 75.050354%, 75.050354%)" offset="0.289062"/><stop stop-opacity="1" stop-color="rgb(75.323486%, 75.323486%, 75.323486%)" offset="0.296875"/><stop stop-opacity="1" stop-color="rgb(75.596619%, 75.596619%, 75.596619%)" offset="0.304688"/><stop stop-opacity="1" stop-color="rgb(75.868225%, 75.868225%, 75.868225%)" offset="0.3125"/><stop stop-opacity="1" stop-color="rgb(76.141357%, 76.141357%, 76.141357%)" offset="0.320312"/><stop stop-opacity="1" stop-color="rgb(76.41449%, 76.41449%, 76.41449%)" offset="0.328125"/><stop stop-opacity="1" stop-color="rgb(76.686096%, 76.686096%, 76.686096%)" offset="0.335938"/><stop stop-opacity="1" stop-color="rgb(76.959229%, 76.959229%, 76.959229%)" offset="0.34375"/><stop stop-opacity="1" stop-color="rgb(77.232361%, 77.232361%, 77.232361%)" offset="0.351562"/><stop stop-opacity="1" stop-color="rgb(77.503967%, 77.503967%, 77.503967%)" offset="0.359375"/><stop stop-opacity="1" stop-color="rgb(77.7771%, 77.7771%, 77.7771%)" offset="0.367188"/><stop stop-opacity="1" stop-color="rgb(78.050232%, 78.050232%, 78.050232%)" offset="0.375"/><stop stop-opacity="1" stop-color="rgb(78.321838%, 78.321838%, 78.321838%)" offset="0.382812"/><stop stop-opacity="1" stop-color="rgb(78.594971%, 78.594971%, 78.594971%)" offset="0.390625"/><stop stop-opacity="1" stop-color="rgb(78.868103%, 78.868103%, 78.868103%)" offset="0.398438"/><stop stop-opacity="1" stop-color="rgb(79.141235%, 79.141235%, 79.141235%)" offset="0.40625"/><stop stop-opacity="1" stop-color="rgb(79.412842%, 79.412842%, 79.412842%)" offset="0.414062"/><stop stop-opacity="1" stop-color="rgb(79.685974%, 79.685974%, 79.685974%)" offset="0.421875"/><stop stop-opacity="1" stop-color="rgb(79.959106%, 79.959106%, 79.959106%)" offset="0.429688"/><stop stop-opacity="1" stop-color="rgb(80.230713%, 80.230713%, 80.230713%)" offset="0.4375"/><stop stop-opacity="1" stop-color="rgb(80.503845%, 80.503845%, 80.503845%)" offset="0.445312"/><stop stop-opacity="1" stop-color="rgb(80.776978%, 80.776978%, 80.776978%)" offset="0.453125"/><stop stop-opacity="1" stop-color="rgb(81.048584%, 81.048584%, 81.048584%)" offset="0.460938"/><stop stop-opacity="1" stop-color="rgb(81.321716%, 81.321716%, 81.321716%)" offset="0.46875"/><stop stop-opacity="1" stop-color="rgb(81.594849%, 81.594849%, 81.594849%)" offset="0.476562"/><stop stop-opacity="1" stop-color="rgb(81.866455%, 81.866455%, 81.866455%)" offset="0.484375"/><stop stop-opacity="1" stop-color="rgb(82.139587%, 82.139587%, 82.139587%)" offset="0.492188"/><stop stop-opacity="1" stop-color="rgb(82.41272%, 82.41272%, 82.41272%)" offset="0.5"/><stop stop-opacity="1" stop-color="rgb(82.684326%, 82.684326%, 82.684326%)" offset="0.507812"/><stop stop-opacity="1" stop-color="rgb(82.957458%, 82.957458%, 82.957458%)" offset="0.515625"/><stop stop-opacity="1" stop-color="rgb(83.230591%, 83.230591%, 83.230591%)" offset="0.523438"/><stop stop-opacity="1" stop-color="rgb(83.503723%, 83.503723%, 83.503723%)" offset="0.53125"/><stop stop-opacity="1" stop-color="rgb(83.77533%, 83.77533%, 83.77533%)" offset="0.539062"/><stop stop-opacity="1" stop-color="rgb(84.048462%, 84.048462%, 84.048462%)" offset="0.546875"/><stop stop-opacity="1" stop-color="rgb(84.321594%, 84.321594%, 84.321594%)" offset="0.554688"/><stop stop-opacity="1" stop-color="rgb(84.593201%, 84.593201%, 84.593201%)" offset="0.5625"/><stop stop-opacity="1" stop-color="rgb(84.866333%, 84.866333%, 84.866333%)" offset="0.570312"/><stop stop-opacity="1" stop-color="rgb(85.139465%, 85.139465%, 85.139465%)" offset="0.578125"/><stop stop-opacity="1" stop-color="rgb(85.411072%, 85.411072%, 85.411072%)" offset="0.585938"/><stop stop-opacity="1" stop-color="rgb(85.684204%, 85.684204%, 85.684204%)" offset="0.59375"/><stop stop-opacity="1" stop-color="rgb(85.957336%, 85.957336%, 85.957336%)" offset="0.601562"/><stop stop-opacity="1" stop-color="rgb(86.228943%, 86.228943%, 86.228943%)" offset="0.609375"/><stop stop-opacity="1" stop-color="rgb(86.502075%, 86.502075%, 86.502075%)" offset="0.617188"/><stop stop-opacity="1" stop-color="rgb(86.775208%, 86.775208%, 86.775208%)" offset="0.625"/><stop stop-opacity="1" stop-color="rgb(87.046814%, 87.046814%, 87.046814%)" offset="0.632812"/><stop stop-opacity="1" stop-color="rgb(87.319946%, 87.319946%, 87.319946%)" offset="0.640625"/><stop stop-opacity="1" stop-color="rgb(87.593079%, 87.593079%, 87.593079%)" offset="0.648438"/><stop stop-opacity="1" stop-color="rgb(87.866211%, 87.866211%, 87.866211%)" offset="0.65625"/><stop stop-opacity="1" stop-color="rgb(88.137817%, 88.137817%, 88.137817%)" offset="0.664062"/><stop stop-opacity="1" stop-color="rgb(88.41095%, 88.41095%, 88.41095%)" offset="0.671875"/><stop stop-opacity="1" stop-color="rgb(88.684082%, 88.684082%, 88.684082%)" offset="0.679688"/><stop stop-opacity="1" stop-color="rgb(88.955688%, 88.955688%, 88.955688%)" offset="0.6875"/><stop stop-opacity="1" stop-color="rgb(89.228821%, 89.228821%, 89.228821%)" offset="0.695312"/><stop stop-opacity="1" stop-color="rgb(89.501953%, 89.501953%, 89.501953%)" offset="0.703125"/><stop stop-opacity="1" stop-color="rgb(89.77356%, 89.77356%, 89.77356%)" offset="0.710938"/><stop stop-opacity="1" stop-color="rgb(90.046692%, 90.046692%, 90.046692%)" offset="0.71875"/><stop stop-opacity="1" stop-color="rgb(90.319824%, 90.319824%, 90.319824%)" offset="0.726562"/><stop stop-opacity="1" stop-color="rgb(90.591431%, 90.591431%, 90.591431%)" offset="0.734375"/><stop stop-opacity="1" stop-color="rgb(90.864563%, 90.864563%, 90.864563%)" offset="0.742188"/><stop stop-opacity="1" stop-color="rgb(91.137695%, 91.137695%, 91.137695%)" offset="0.75"/><stop stop-opacity="1" stop-color="rgb(91.409302%, 91.409302%, 91.409302%)" offset="0.757812"/><stop stop-opacity="1" stop-color="rgb(91.682434%, 91.682434%, 91.682434%)" offset="0.765625"/><stop stop-opacity="1" stop-color="rgb(91.955566%, 91.955566%, 91.955566%)" offset="0.773438"/><stop stop-opacity="1" stop-color="rgb(92.228699%, 92.228699%, 92.228699%)" offset="0.78125"/><stop stop-opacity="1" stop-color="rgb(92.500305%, 92.500305%, 92.500305%)" offset="0.789062"/><stop stop-opacity="1" stop-color="rgb(92.773438%, 92.773438%, 92.773438%)" offset="0.796875"/><stop stop-opacity="1" stop-color="rgb(93.04657%, 93.04657%, 93.04657%)" offset="0.804688"/><stop stop-opacity="1" stop-color="rgb(93.318176%, 93.318176%, 93.318176%)" offset="0.8125"/><stop stop-opacity="1" stop-color="rgb(93.591309%, 93.591309%, 93.591309%)" offset="0.820312"/><stop stop-opacity="1" stop-color="rgb(93.864441%, 93.864441%, 93.864441%)" offset="0.828125"/><stop stop-opacity="1" stop-color="rgb(94.136047%, 94.136047%, 94.136047%)" offset="0.835938"/><stop stop-opacity="1" stop-color="rgb(94.40918%, 94.40918%, 94.40918%)" offset="0.84375"/><stop stop-opacity="1" stop-color="rgb(94.682312%, 94.682312%, 94.682312%)" offset="0.851562"/><stop stop-opacity="1" stop-color="rgb(94.953918%, 94.953918%, 94.953918%)" offset="0.859375"/><stop stop-opacity="1" stop-color="rgb(95.227051%, 95.227051%, 95.227051%)" offset="0.867188"/><stop stop-opacity="1" stop-color="rgb(95.500183%, 95.500183%, 95.500183%)" offset="0.875"/><stop stop-opacity="1" stop-color="rgb(95.77179%, 95.77179%, 95.77179%)" offset="0.882812"/><stop stop-opacity="1" stop-color="rgb(96.044922%, 96.044922%, 96.044922%)" offset="0.890625"/><stop stop-opacity="1" stop-color="rgb(96.318054%, 96.318054%, 96.318054%)" offset="0.898438"/><stop stop-opacity="1" stop-color="rgb(96.591187%, 96.591187%, 96.591187%)" offset="0.90625"/><stop stop-opacity="1" stop-color="rgb(96.862793%, 96.862793%, 96.862793%)" offset="0.914062"/><stop stop-opacity="1" stop-color="rgb(97.135925%, 97.135925%, 97.135925%)" offset="0.921875"/><stop stop-opacity="1" stop-color="rgb(97.409058%, 97.409058%, 97.409058%)" offset="0.929688"/><stop stop-opacity="1" stop-color="rgb(97.680664%, 97.680664%, 97.680664%)" offset="0.9375"/><stop stop-opacity="1" stop-color="rgb(97.953796%, 97.953796%, 97.953796%)" offset="0.945312"/><stop stop-opacity="1" stop-color="rgb(98.226929%, 98.226929%, 98.226929%)" offset="0.953125"/><stop stop-opacity="1" stop-color="rgb(98.498535%, 98.498535%, 98.498535%)" offset="0.960938"/><stop stop-opacity="1" stop-color="rgb(98.771667%, 98.771667%, 98.771667%)" offset="0.96875"/><stop stop-opacity="1" stop-color="rgb(99.0448%, 99.0448%, 99.0448%)" offset="0.976562"/><stop stop-opacity="1" stop-color="rgb(99.316406%, 99.316406%, 99.316406%)" offset="0.984375"/><stop stop-opacity="1" stop-color="rgb(99.589539%, 99.589539%, 99.589539%)" offset="0.992188"/><stop stop-opacity="1" stop-color="rgb(99.862671%, 99.862671%, 99.862671%)" offset="1"/></linearGradient><clipPath id="dd24f7400a"><path d="M 124 136 L 262.5 136 L 262.5 248 L 124 248 Z M 124 136 " clip-rule="nonzero"/></clipPath><clipPath id="08b6c069ea"><path d="M 112.5 126.273438 L 254 126.273438 L 254 244 L 112.5 244 Z M 112.5 126.273438 " clip-rule="nonzero"/></clipPath></defs><g clip-path="url(#aead6575dd)"><g clip-path="url(#98d9c07d5e)"><path fill="url(#4e644e9cd3)" d="M 37.5 37.5 L 37.5 337.5 L 337.5 337.5 L 337.5 37.5 Z M 37.5 37.5 " fill-rule="nonzero"/><path stroke-linecap="butt" transform="matrix(0.75, 0, 0, 0.75, 37.500002, 37.499998)" fill="none" stroke-linejoin="miter" d="M 200.00001 0.00000328333 C 89.54167 0.00000328333 -0.00000271667 89.541676 -0.00000271667 200.000016 C -0.00000271667 310.458357 89.54167 400.00003 200.00001 400.00003 C 310.458351 400.00003 400.000024 310.458357 400.000024 200.000016 C 400.000024 89.541676 310.458351 0.00000328333 200.00001 0.00000328333 Z M 200.00001 0.00000328333 " stroke="#d9d9d9" stroke-width="4" stroke-opacity="1" stroke-miterlimit="4"/></g></g><g clip-path="url(#dd24f7400a)"><path fill="#dab484" d="M 124.417969 139.640625 C 123.613281 174.242188 124.050781 208.878906 125.738281 243.441406 C 125.789062 244.519531 125.886719 245.707031 126.605469 246.457031 C 127.339844 247.226562 128.476562 247.285156 129.496094 247.300781 C 173.835938 247.871094 218.203125 248.445312 262.5 246.269531 C 262.5 209.808594 261.582031 173.347656 259.742188 136.941406 C 214.945312 137.742188 170.140625 138.546875 124.417969 139.640625 Z M 124.417969 139.640625 " fill-opacity="1" fill-rule="nonzero"/></g><path fill="#c4a178" d="M 125.667969 238.238281 C 140.128906 240.566406 154.683594 242.898438 169.332031 242.710938 C 175.539062 242.628906 181.730469 242.097656 187.941406 242.070312 C 199.148438 242.027344 210.296875 243.640625 221.484375 244.324219 C 232.089844 244.972656 242.746094 244.789062 253.320312 243.769531 C 255.683594 227.648438 253.953125 211.179688 255.8125 194.996094 C 256.550781 188.582031 257.847656 182.222656 258.023438 175.769531 C 258.363281 163 254.753906 149.722656 256 137.007812 C 254.082031 137.375 251.835938 138.839844 250.117188 139.765625 C 234.523438 148.140625 221.5625 160.546875 207.507812 171.289062 C 188.527344 185.792969 167.480469 197.308594 146.6875 209.066406 C 142.796875 211.265625 138.871094 213.507812 135.65625 216.605469 C 130.496094 221.582031 127.5625 228.363281 125.671875 238.234375 Z M 125.667969 238.238281 " fill-opacity="1" fill-rule="nonzero"/><g clip-path="url(#08b6c069ea)"><path fill="#e8c192" d="M 118.738281 126.953125 C 118.738281 126.953125 118.714844 126.960938 118.714844 126.972656 C 115.414062 161.421875 113.351562 195.988281 112.535156 230.578125 C 112.511719 231.660156 112.519531 232.847656 113.1875 233.652344 C 113.863281 234.472656 114.988281 234.613281 116.007812 234.699219 C 159.125 238.371094 202.269531 242.042969 245.53125 243.160156 C 247.324219 243.210938 248.84375 241.828125 248.972656 240.039062 C 251.417969 205.59375 253.035156 171.089844 253.828125 136.574219 C 253.863281 135.136719 252.742188 133.933594 251.304688 133.855469 C 207.429688 131.476562 163.539062 129.105469 118.738281 126.953125 Z M 118.738281 126.953125 " fill-opacity="1" fill-rule="nonzero"/></g><path fill="#f1c99a" d="M 128.996094 134.945312 C 122.066406 143.933594 121.882812 157.507812 128.566406 166.683594 C 130.714844 169.632812 133.488281 172.160156 135.089844 175.433594 C 137.867188 181.105469 136.640625 187.800781 135.910156 194.074219 C 135.179688 200.34375 135.335938 207.523438 139.925781 211.867188 C 141.589844 213.445312 143.6875 214.472656 145.75 215.480469 C 149.289062 217.207031 152.828125 218.929688 156.363281 220.65625 C 159.109375 221.992188 161.898438 223.347656 164.898438 223.925781 C 168.359375 224.59375 171.960938 224.199219 175.429688 224.839844 C 180.878906 225.851562 185.679688 229.351562 191.1875 229.996094 C 197.917969 230.792969 204.8125 227.207031 211.355469 228.96875 C 214.378906 229.78125 217.363281 231.71875 220.390625 230.917969 C 221.949219 230.503906 223.230469 229.40625 224.359375 228.261719 C 234.433594 218.058594 236.679688 202.808594 240.84375 189.09375 C 242.460938 183.769531 244.445312 178.515625 245.261719 173.011719 C 246.140625 167.089844 245.644531 161.054688 244.953125 155.109375 C 244.664062 152.632812 244.324219 150.089844 243.121094 147.902344 C 241.332031 144.644531 237.921875 142.664062 234.679688 140.84375 C 230.324219 138.394531 225.738281 135.882812 220.746094 135.785156 C 217.144531 135.710938 213.5625 136.917969 209.992188 136.453125 C 206.34375 135.980469 203.105469 133.8125 199.476562 133.207031 C 196.03125 132.632812 192.527344 133.507812 189.042969 133.808594 C 180.660156 134.523438 172.394531 131.886719 164.042969 130.863281 C 158.898438 130.234375 153.695312 130.222656 148.515625 130.207031 C 143.640625 130.195312 135.628906 126.351562 129 134.953125 Z M 128.996094 134.945312 " fill-opacity="1" fill-rule="nonzero"/><path fill="#f7cf9e" d="M 216.285156 149.539062 C 212.214844 146.769531 207.089844 146.167969 202.1875 145.652344 C 196.984375 145.101562 191.78125 144.550781 186.574219 144 C 183.050781 143.625 179.433594 143.257812 176.015625 144.179688 C 172.6875 145.074219 169.804688 147.117188 167.003906 149.125 C 162.40625 152.417969 157.789062 155.730469 153.769531 159.707031 C 149.664062 163.773438 146.082031 168.910156 145.9375 174.683594 C 145.808594 179.910156 148.488281 184.742188 149.839844 189.796875 C 150.75 193.199219 151.152344 196.953125 153.5 199.578125 C 156.460938 202.898438 161.421875 203.269531 165.53125 204.976562 C 170.664062 207.109375 174.882812 211.566406 180.398438 212.289062 C 183.875 212.742188 187.46875 211.625 190.882812 212.40625 C 193.578125 213.027344 195.878906 214.769531 198.523438 215.574219 C 202.011719 216.640625 205.765625 216 209.355469 215.347656 C 213.585938 214.582031 218.125 213.652344 221.050781 210.503906 C 222.867188 208.546875 223.824219 205.957031 224.644531 203.414062 C 227.558594 194.367188 229.277344 184.941406 229.753906 175.449219 C 230.15625 167.324219 228.941406 158.164062 216.277344 149.539062 Z M 216.285156 149.539062 " fill-opacity="1" fill-rule="nonzero"/><path fill="#906b3d" d="M 200.179688 165.695312 C 203.675781 167.4375 207.625 167.988281 211.496094 168.511719 C 213.96875 168.847656 216.484375 169.183594 218.957031 168.820312 C 222.023438 168.371094 224.859375 166.875 227.925781 166.441406 C 233.414062 165.671875 238.796875 168.386719 244.335938 168.574219 C 238.976562 165.800781 232.644531 164.957031 226.742188 166.21875 C 224.199219 166.765625 221.742188 167.683594 219.183594 168.117188 C 212.894531 169.171875 206.492188 167.207031 200.613281 164.738281 C 200.097656 164.835938 199.851562 165.527344 200.179688 165.691406 Z M 200.179688 165.695312 " fill-opacity="1" fill-rule="nonzero"/><path fill="#906b3d" d="M 201.453125 163.265625 C 208.464844 165.910156 215.96875 168.597656 223.292969 167.007812 C 227.269531 166.144531 231.097656 164.039062 235.144531 164.445312 C 238.265625 164.757812 241.199219 166.566406 244.320312 166.285156 C 239.164062 163.386719 232.726562 162.867188 227.171875 164.898438 C 225.324219 165.578125 223.539062 166.527344 221.578125 166.753906 C 220.210938 166.910156 218.828125 166.703125 217.472656 166.464844 C 212.03125 165.503906 206.679688 164.058594 201.5 162.148438 C 201.378906 162.523438 201.253906 162.898438 201.457031 163.265625 Z M 201.453125 163.265625 " fill-opacity="1" fill-rule="nonzero"/><path fill="#906b3d" d="M 202.070312 160.492188 C 208.375 161.140625 214.226562 164.804688 220.554688 164.5625 C 224.144531 164.421875 227.554688 163.027344 231.082031 162.351562 C 235.285156 161.542969 239.683594 161.773438 243.78125 163.011719 C 244.121094 162.269531 243.027344 161.726562 242.214844 161.628906 C 237.902344 161.121094 233.480469 160.617188 229.257812 161.628906 C 226.589844 162.269531 224.035156 163.5 221.292969 163.613281 C 219.3125 163.695312 217.363281 163.183594 215.445312 162.675781 C 211.855469 161.722656 208.261719 160.765625 204.671875 159.816406 C 203.617188 159.535156 202.257812 159.359375 202.074219 160.496094 Z M 202.070312 160.492188 " fill-opacity="1" fill-rule="nonzero"/><path fill="#906b3d" d="M 204.238281 156.804688 C 208.453125 158.226562 212.714844 159.507812 217.015625 160.652344 C 219.152344 161.214844 221.332031 161.753906 223.539062 161.6875 C 225.75 161.621094 227.894531 160.957031 230.070312 160.550781 C 232.769531 160.042969 235.546875 159.933594 238.28125 160.230469 C 240.285156 160.445312 242.371094 160.871094 244.277344 160.203125 C 240.207031 158.835938 235.769531 158.570312 231.5625 159.4375 C 229.640625 159.835938 227.757812 160.464844 225.800781 160.640625 C 224.078125 160.792969 222.339844 160.585938 220.632812 160.304688 C 217.277344 159.746094 213.976562 158.882812 210.777344 157.726562 C 208.644531 156.957031 206.285156 156.054688 204.246094 156.808594 Z M 204.238281 156.804688 " fill-opacity="1" fill-rule="nonzero"/><path fill="#906b3d" d="M 139.527344 191.929688 C 135.816406 190.992188 131.847656 192.914062 129.328125 195.792969 C 124.339844 201.488281 124.550781 210.996094 129.78125 216.472656 C 135.011719 221.945312 144.519531 222.601562 150.457031 217.492188 L 147.320312 218.976562 C 145.355469 219.910156 143.285156 220.863281 141.113281 220.734375 C 139.605469 220.648438 138.183594 220.042969 136.796875 219.449219 C 136.125 219.160156 135.453125 218.875 134.785156 218.585938 C 133.578125 218.066406 132.355469 217.539062 131.359375 216.691406 C 129.460938 215.078125 128.648438 212.5625 127.921875 210.183594 C 127.222656 207.886719 126.511719 205.492188 126.890625 203.121094 C 127.160156 201.433594 127.96875 199.878906 128.851562 198.410156 C 129.804688 196.832031 130.882812 195.28125 132.332031 194.136719 C 134.535156 192.386719 137.546875 191.699219 139.53125 191.929688 Z M 139.527344 191.929688 " fill-opacity="1" fill-rule="nonzero"/><path fill="#906b3d" d="M 137.785156 196.445312 C 134.007812 198.550781 131.609375 202.902344 131.847656 207.214844 C 131.882812 207.820312 131.964844 208.429688 132.15625 209.007812 C 132.679688 210.5625 133.941406 211.742188 135.15625 212.847656 C 132.390625 209.925781 131.761719 205.195312 133.667969 201.660156 C 134.820312 199.527344 136.71875 197.910156 137.785156 196.445312 Z M 137.785156 196.445312 " fill-opacity="1" fill-rule="nonzero"/><path fill="#906b3d" d="M 146.539062 216.792969 C 142.816406 217.449219 138.847656 216.535156 135.792969 214.3125 C 137.84375 216.941406 141.496094 218.210938 146.539062 216.792969 Z M 146.539062 216.792969 " fill-opacity="1" fill-rule="nonzero"/><path fill="#906b3d" d="M 142.421875 206.957031 C 145.621094 205.648438 149.289062 206.5 152.507812 207.757812 C 155.730469 209.011719 158.871094 210.679688 162.3125 211.015625 C 167.019531 211.472656 171.941406 209.402344 176.386719 211.003906 C 174.230469 209.9375 171.734375 209.570312 169.363281 209.972656 C 167.738281 210.25 166.144531 210.875 164.496094 210.796875 C 163.511719 210.75 162.554688 210.449219 161.609375 210.152344 C 157.570312 208.878906 153.527344 207.605469 149.484375 206.332031 C 147.007812 205.550781 144.230469 204.789062 141.910156 205.953125 C 141.933594 206.300781 141.953125 206.648438 142.425781 206.957031 Z M 142.421875 206.957031 " fill-opacity="1" fill-rule="nonzero"/><path fill="#906b3d" d="M 143.574219 210.683594 C 146.945312 209.789062 150.515625 210.789062 153.765625 212.050781 C 157.015625 213.316406 160.242188 214.871094 163.71875 215.128906 C 168.105469 215.460938 172.695312 213.707031 176.820312 215.242188 C 176.707031 214.851562 176.601562 214.460938 176.488281 214.070312 C 172.859375 213.214844 169.09375 214.574219 165.367188 214.550781 C 157.820312 214.5 150.839844 208.800781 143.394531 210.035156 C 142.992188 210.097656 142.566406 210.203125 143.570312 210.683594 Z M 143.574219 210.683594 " fill-opacity="1" fill-rule="nonzero"/><path fill="#906b3d" d="M 143.191406 214.816406 C 148.050781 214.402344 152.996094 215.027344 157.597656 216.644531 C 161.382812 217.976562 165.109375 219.996094 169.121094 219.796875 C 171.976562 219.652344 174.832031 218.371094 177.601562 219.0625 C 177.238281 217.601562 175.140625 217.679688 173.695312 218.109375 C 171.226562 218.839844 168.652344 219.605469 166.109375 219.175781 C 164.089844 218.835938 162.277344 217.765625 160.402344 216.941406 C 156.292969 215.136719 151.78125 214.480469 147.339844 213.839844 C 145.757812 213.613281 143.96875 213.433594 143.191406 214.816406 Z M 143.191406 214.816406 " fill-opacity="1" fill-rule="nonzero"/><path fill="#906b3d" d="M 142.339844 202.992188 C 146.085938 201.953125 150.160156 202.128906 153.800781 203.480469 C 157.828125 204.980469 161.390625 207.878906 165.660156 208.363281 C 169.507812 208.796875 173.578125 207.199219 177.183594 208.621094 C 177.273438 207.957031 176.511719 207.519531 175.867188 207.359375 C 172.625 206.570312 169.238281 207.878906 165.914062 207.636719 C 163.972656 207.5 162.113281 206.839844 160.28125 206.183594 C 157.984375 205.363281 155.695312 204.542969 153.398438 203.722656 C 150.269531 202.601562 146.742188 201.492188 142.34375 202.992188 Z M 142.339844 202.992188 " fill-opacity="1" fill-rule="nonzero"/><path fill="#906b3d" d="M 227.515625 141.304688 C 226.929688 148.757812 226.914062 156.25 227.46875 163.699219 C 233.527344 164.617188 239.683594 164.9375 245.804688 164.640625 C 246.710938 156.617188 246.925781 148.515625 246.445312 140.457031 C 240.464844 139.925781 234.421875 140.074219 227.511719 141.304688 Z M 227.515625 141.304688 " fill-opacity="1" fill-rule="nonzero"/><path fill="#c7a06f" d="M 228.652344 142.085938 C 228.222656 148.605469 229.378906 157.058594 229.234375 163.59375 C 234.261719 162.367188 239.507812 162.027344 244.65625 162.597656 C 245.078125 156.136719 244.355469 148.21875 244.339844 141.742188 C 239.933594 142.171875 235.011719 142.121094 228.65625 142.085938 Z M 228.652344 142.085938 " fill-opacity="1" fill-rule="nonzero"/></svg>